<svg viewBox="0 0 1024 1024" preserveAspectRatio="xMidYMid meet" xmlns="http://www.w3.org/2000/svg" width="1024" height="1024" background="transparent" style="background: transparent;"><g><path d="M0 0 C337.92 0 675.84 0 1024 0 C1024 337.92 1024 675.84 1024 1024 C686.08 1024 348.16 1024 0 1024 C0 686.08 0 348.16 0 0 Z " fill="#FEFEFE" transform="translate(0,0)"/></g><g><path d="M0 0 C6.597 0.745 13.179 2.179 18 7 C19.135 14.869 17.419 21.862 15.09 29.332 C13.941 33.199 13.044 37.049 12.25 41 C11.886 42.794 11.886 42.794 11.516 44.625 C11.028 47.814 10.902 50.78 11 54 C11.461 53.091 11.923 52.182 12.398 51.246 C17.317 41.711 22.796 32.752 29 24 C29.669 23.049 30.338 22.097 31.027 21.117 C37.423 12.564 45.651 5.38 56.457 3.594 C62.367 3.359 66.293 4.441 71.016 8.066 C76.804 13.707 78.476 19.845 78.625 27.812 C78.563 35.571 76.765 42.702 74.797 50.165 C73.316 55.996 72.505 61.48 72.5 67.5 C72.491 68.532 72.491 68.532 72.482 69.584 C72.589 73.82 73.35 76.67 76 80 C80.029 80.806 81.669 80.201 85.188 78.062 C86.116 77.382 87.044 76.701 88 76 C88.99 75.67 89.98 75.34 91 75 C91.708 73.688 92.366 72.349 93 71 C95.085 68.142 97.251 65.355 99.418 62.559 C100.284 61.376 101.144 60.19 102 59 C102.572 58.228 103.143 57.457 103.732 56.661 C108.886 49.243 110.901 42.096 112.688 33.312 C112.976 31.979 113.266 30.646 113.559 29.313 C114.128 26.716 114.688 24.117 115.241 21.516 C116.201 17.071 117.259 12.658 118.375 8.25 C118.671 7.059 118.968 5.868 119.273 4.641 C120 2 120 2 121 0 C126.936 0.134 132.515 0.588 137.424 4.198 C140.035 7.184 139.421 10.069 139.302 13.879 C138.784 19.23 137.452 24.318 136.062 29.5 C133.984 37.359 132.459 44.87 132 53 C132.557 51.912 133.114 50.824 133.688 49.703 C153.829 10.751 153.829 10.751 171.57 3.66 C177.444 2.064 182.866 1.972 188.375 4.625 C193.68 9.425 197.533 13.908 198.371 21.25 C198.515 29.39 197.598 36.438 195.5 44.312 C193.591 51.498 192.528 58.178 192.562 65.625 C192.565 66.425 192.568 67.224 192.57 68.048 C192.67 71.851 192.848 73.772 195 77 C200.699 76.881 203.669 75.321 207.809 71.441 C217.613 60.599 217.613 60.599 222.641 47.598 C222.739 46.717 222.836 45.836 222.937 44.928 C223.04 43.983 223.144 43.037 223.25 42.062 C224.213 34.201 225.637 26.708 227.938 19.125 C228.299 17.924 228.299 17.924 228.667 16.699 C230.314 11.51 232.461 6.815 235 2 C241.597 1.283 246.472 3.412 252 7 C254.513 10.77 254.35 12.517 254 17 C253.167 19.705 252.282 22.252 251.25 24.875 C245.648 40.049 239.834 58.142 246 74 C251.4 73.576 254.037 72.66 258 69 C259.657 66.876 261.159 64.809 262.625 62.562 C263.052 61.91 263.479 61.257 263.918 60.585 C274.598 43.889 282.061 26.085 288.938 7.578 C290 5 290 5 292 2 C298.148 1.103 303.6 3.048 309 6 C311.973 10.459 310.893 13.858 310 19 C308.964 23.61 307.785 28.176 306.583 32.745 C305.988 35.047 305.425 37.355 304.871 39.668 C299.686 61.209 293.087 81.931 284.137 102.199 C282.875 104.805 282.875 104.805 283 107 C287.338 107.1 291.674 107.172 296.013 107.22 C297.483 107.24 298.953 107.267 300.423 107.302 C311.07 107.549 321.958 107.333 330.688 100.375 C333.699 97.282 334.144 95.556 334.562 91.375 C334.646 90.558 334.73 89.74 334.816 88.898 C334.877 88.272 334.938 87.645 335 87 C337.612 86.616 339.371 86.598 341.633 88.043 C343.832 89.854 345.713 91.427 347 94 C347.388 98.035 347.294 100.423 345.438 104.062 C344.633 105.032 343.829 106.001 343 107 C342.584 107.517 342.167 108.034 341.738 108.566 C335.722 114.866 325.871 116.71 317.433 117.127 C314.71 117.142 311.999 117.092 309.277 117.004 C307.891 116.961 307.891 116.961 306.477 116.916 C302.656 116.779 298.838 116.616 295.021 116.39 C283.98 115.259 283.98 115.259 274.293 119.276 C272.497 122.119 271.227 124.875 270 128 C264.738 135.999 257.851 143.107 249 147 C243.292 147.634 240.497 146.51 236 143 C238.376 140.426 240.786 138.48 243.688 136.562 C251.203 131.06 255.965 122.206 260 114 C256.052 114.045 252.106 114.115 248.159 114.208 C246.169 114.249 244.178 114.271 242.188 114.293 C232.857 114.529 225.704 115.895 217.875 121.062 C215.026 125.526 215.594 129.847 216 135 C211.645 134.744 209.504 134.427 206.125 131.562 C202.795 127.547 202.564 125.229 203 120 C206.051 113.499 211.721 109.801 218.196 107.076 C227.551 104.17 237.004 104.669 246.688 104.812 C248.468 104.828 250.249 104.841 252.029 104.854 C256.353 104.886 260.676 104.938 265 105 C265.121 104.301 265.243 103.603 265.368 102.883 C266.052 99.761 267.027 96.879 268.109 93.871 C268.532 92.68 268.955 91.488 269.391 90.26 C269.613 89.636 269.836 89.011 270.065 88.367 C274.432 76.064 278.178 63.758 281 51 C280.563 51.739 280.563 51.739 280.117 52.494 C262.411 82.317 262.411 82.317 249 88 C242.946 88.764 237.101 88.885 231.438 86.5 C226.307 81.238 223.461 76.378 223 69 C220.547 71.373 218.208 73.758 215.98 76.348 C210.144 83.125 203.549 90.46 194.109 91.238 C187.114 91.393 182.563 91.404 177 87 C172.303 82.29 169.766 78.302 169.671 71.568 C169.679 70.513 169.679 70.513 169.688 69.438 C169.69 68.7 169.693 67.963 169.696 67.203 C169.883 56.955 171.496 46.651 174.086 36.738 C174.818 33.743 175.272 31.302 175.25 28.25 C175.255 27.533 175.26 26.817 175.266 26.078 C174.963 23.709 174.172 22.066 173 20 C169.925 19.462 167.797 19.508 165.102 21.172 C146.394 36.7 136.193 64.431 127.191 86.41 C126 89 126 89 124 91 C121.291 91.199 118.707 91.278 116 91.25 C114.894 91.262 114.894 91.262 113.766 91.273 C108.253 91.253 108.253 91.253 106 89 C105.828 86.314 105.768 83.745 105.812 81.062 C105.813 79.969 105.813 79.969 105.814 78.854 C105.841 75.651 105.981 73.057 107 70 C106.34 70 105.68 70 105 70 C104.629 70.826 104.629 70.826 104.25 71.668 C99.563 80.412 92.45 86.994 84 92 C83.105 92.572 83.105 92.572 82.191 93.156 C76.27 95.436 67.311 95.049 61.348 93.16 C55.491 89.821 52.094 84.282 50 78 C49.908 76.47 49.869 74.936 49.867 73.402 C49.866 72.519 49.865 71.635 49.863 70.725 C49.867 69.805 49.871 68.885 49.875 67.938 C49.871 67.014 49.867 66.09 49.863 65.139 C49.865 63.815 49.865 63.815 49.867 62.465 C49.868 61.657 49.869 60.848 49.871 60.015 C50 58 50 58 51 56 C51.273 54.591 51.507 53.174 51.719 51.754 C51.91 50.498 51.91 50.498 52.105 49.217 C52.301 47.903 52.301 47.903 52.5 46.562 C52.758 44.834 53.018 43.106 53.281 41.379 C53.452 40.228 53.452 40.228 53.627 39.053 C54 37 54 37 55 34 C55.117 32.524 55.175 31.043 55.188 29.562 C55.202 28.801 55.216 28.039 55.23 27.254 C54.976 24.767 54.24 23.152 53 21 C49.519 20.492 47.235 20.328 44.105 22.031 C37.127 27.603 32.585 35.468 28 43 C27.401 43.98 27.401 43.98 26.79 44.979 C22.217 52.567 18.23 60.345 14.656 68.453 C14.369 69.104 14.081 69.755 13.785 70.426 C12.35 73.691 10.937 76.964 9.553 80.25 C9.034 81.454 8.515 82.658 7.98 83.898 C7.526 84.978 7.071 86.057 6.602 87.169 C4.8 90.354 3.034 91.985 0 94 C-2.719 94.496 -2.719 94.496 -5.5 94.438 C-6.418 94.436 -7.336 94.435 -8.281 94.434 C-11.74 93.882 -13.436 93.448 -16 91 C-16.626 87.755 -16.469 84.601 -16.312 81.312 C-16.29 80.42 -16.267 79.527 -16.244 78.607 C-16.185 76.403 -16.103 74.202 -16 72 C-16.534 72.678 -17.067 73.356 -17.617 74.055 C-36.407 97.526 -36.407 97.526 -50.594 99.5 C-57.312 99.73 -63.74 99.575 -69 95 C-75.291 87.693 -77.211 80 -77.625 70.562 C-77.664 69.831 -77.702 69.099 -77.742 68.346 C-77.835 66.564 -77.919 64.782 -78 63 C-78.378 63.643 -78.755 64.286 -79.145 64.949 C-86.163 76.472 -94.117 87.204 -106 94 C-106.727 94.431 -107.454 94.861 -108.203 95.305 C-114.893 98.794 -122.03 99.257 -129.332 97.41 C-135.964 94.658 -139.103 88.886 -142.137 82.672 C-146.703 68.539 -140.701 53.408 -134.75 40.688 C-131.276 34.058 -127.014 28.529 -122 23 C-121.46 22.355 -120.92 21.711 -120.363 21.047 C-112.338 12.071 -99.319 5.546 -87.367 4.762 C-75.429 4.536 -64.211 6.244 -54.062 12.938 C-51.781 15.219 -50.275 17.024 -49 20 C-49.218 23.7 -49.355 25.355 -52 28 C-56.864 27.869 -58.782 25.383 -62 22 C-65.865 19.263 -70.2 19.632 -74.75 19.625 C-75.523 19.601 -76.297 19.576 -77.094 19.551 C-86.662 19.503 -92.766 24.075 -99.551 30.465 C-109.37 40.629 -118.139 55.027 -118.25 69.438 C-118.276 70.756 -118.302 72.075 -118.328 73.434 C-117.992 77.092 -117.636 78.507 -115 81 C-110.902 81.858 -108.411 80.883 -104.938 78.812 C-101.553 76.518 -98.756 74.038 -96 71 C-95.491 70.483 -94.982 69.966 -94.457 69.434 C-85.557 60.004 -79.757 47.792 -73.831 36.371 C-71.09 31.09 -71.09 31.09 -70 30 C-63.508 29.189 -60.217 30.553 -54.992 34.422 C-54.006 35.203 -54.006 35.203 -53 36 C-52.134 36.66 -51.267 37.32 -50.375 38 C-49 40 -49 40 -49.285 42.699 C-50.031 46.145 -51.026 49.443 -52.062 52.812 C-53.71 58.607 -54.405 64.103 -54.438 70.125 C-54.447 70.835 -54.457 71.545 -54.467 72.277 C-54.395 76.662 -53.689 79.516 -51 83 C-47.89 84.555 -45.437 84.286 -42 84 C-32.216 78.904 -26.208 69.464 -20.135 60.617 C-19.187 59.267 -18.184 57.956 -17.168 56.656 C-12.044 49.911 -10.714 42.107 -9 34 C-8.505 31.737 -8.004 29.476 -7.504 27.214 C-7.169 25.703 -6.837 24.192 -6.506 22.68 C-1.932 1.932 -1.932 1.932 0 0 Z " fill="#050505" transform="translate(474,409)"/></g><g><path d="M0 0 C0.965 0.004 1.931 0.007 2.926 0.011 C13.052 0.246 20.405 2.823 28.188 9.5 C30.302 12.249 31.208 13.64 31.125 17.125 C30.005 19.963 28.755 20.926 26.188 22.5 C22.352 20.938 20.084 18.396 17.188 15.5 C12.276 12.403 6.781 12.944 1.188 13.5 C-8.416 16.028 -16.012 24.782 -21.125 32.812 C-26.311 41.746 -30.945 50.939 -31 61.375 C-31.014 62.589 -31.028 63.804 -31.043 65.055 C-30.823 68.343 -30.23 70.554 -28.812 73.5 C-23.825 74.034 -20.876 73.988 -16.75 71 C-2.698 59.162 4.933 41.539 13.188 25.5 C20.248 25.234 23.569 26.199 29.188 30.5 C30.425 31.428 30.425 31.428 31.688 32.375 C33.87 35.466 33.518 37.804 33.188 41.5 C33.032 42.066 32.876 42.632 32.715 43.216 C31.929 46.621 31.716 50.071 31.434 53.547 C31.368 54.318 31.303 55.089 31.236 55.884 C31.029 58.339 30.827 60.794 30.625 63.25 C30.485 64.918 30.345 66.586 30.205 68.254 C29.862 72.336 29.524 76.418 29.188 80.5 C44.631 74.631 59.424 59.826 66.398 44.91 C67.201 42.459 67.583 40.252 67.812 37.688 C67.887 36.897 67.962 36.107 68.039 35.293 C68.088 34.701 68.137 34.11 68.188 33.5 C75.923 33.202 75.923 33.202 79.188 35.5 C81.247 38.589 81.801 40.45 81.68 44.141 C78.569 59.053 59.754 74.133 47.591 82.228 C32.953 91.617 32.953 91.617 27.188 94.5 C26.568 96.917 26.049 99.305 25.562 101.75 C20.726 123.766 11.224 147.333 -8.188 160.375 C-19.667 167.091 -30.408 169.16 -43.555 167.062 C-50.673 165.092 -55.985 160.47 -59.812 154.25 C-62.013 145.998 -61.596 139.305 -57.336 131.832 C-48.228 117.89 -33.537 110.3 -18.812 103.5 C-17.956 103.098 -17.1 102.696 -16.218 102.282 C-13.505 101.01 -10.785 99.752 -8.062 98.5 C-7.204 98.102 -6.346 97.703 -5.462 97.293 C-4.655 96.928 -3.848 96.563 -3.016 96.188 C-2.301 95.861 -1.585 95.535 -0.849 95.199 C1.188 94.5 1.188 94.5 5.188 94.5 C7.744 75.066 7.744 75.066 8.188 55.5 C7.665 56.36 7.143 57.22 6.605 58.105 C-1.815 71.734 -10.156 83.172 -24.812 90.5 C-38.913 91.54 -38.913 91.54 -43.938 89 C-47.439 85.955 -49.92 82.748 -51.812 78.5 C-51.812 77.51 -51.812 76.52 -51.812 75.5 C-54.457 78.069 -56.814 80.502 -59.062 83.438 C-62.31 87.4 -66.444 89.911 -70.812 92.5 C-71.844 93.119 -72.875 93.737 -73.938 94.375 C-79.606 96.603 -86.892 96.311 -92.812 95.5 C-98.817 92.128 -103.792 87.338 -106.309 80.781 C-108.752 69.722 -106.148 58.335 -103.812 47.5 C-102.099 39.533 -100.994 31.672 -101.812 23.5 C-103.664 21.273 -103.664 21.273 -106.438 21 C-112.033 21.829 -115.958 25.321 -119.579 29.575 C-121.326 31.961 -122.959 34.39 -124.562 36.875 C-125.157 37.784 -125.752 38.693 -126.365 39.63 C-135.555 54.001 -142.9 69.255 -148.578 85.32 C-150.154 89.381 -151.901 92.273 -154.812 95.5 C-158.149 96.612 -160.8 96.703 -164.312 96.75 C-166.03 96.789 -166.03 96.789 -167.781 96.828 C-170.812 96.5 -170.812 96.5 -172.484 95.271 C-174.202 92.981 -174.16 91.674 -174.105 88.832 C-174.096 87.939 -174.086 87.047 -174.076 86.127 C-174.051 85.198 -174.026 84.269 -174 83.312 C-173.986 82.372 -173.973 81.432 -173.959 80.463 C-173.924 78.141 -173.874 75.821 -173.812 73.5 C-174.369 74.19 -174.926 74.879 -175.5 75.59 C-177.922 78.573 -180.366 81.537 -182.812 84.5 C-183.816 85.749 -183.816 85.749 -184.84 87.023 C-189.491 92.597 -194.382 96.164 -200.812 99.5 C-201.398 99.875 -201.983 100.25 -202.586 100.637 C-206.046 101.978 -209.529 101.869 -213.188 101.875 C-213.93 101.899 -214.673 101.924 -215.438 101.949 C-221.613 101.982 -225.017 100.058 -229.605 95.859 C-230.066 95.328 -230.526 94.797 -231 94.25 C-231.468 93.729 -231.936 93.208 -232.418 92.672 C-237.427 84.871 -237.186 77.518 -237 68.5 C-236.98 66.622 -236.98 66.622 -236.959 64.707 C-236.924 61.638 -236.875 58.569 -236.812 55.5 C-237.149 56.093 -237.485 56.686 -237.831 57.297 C-259.903 96.016 -259.903 96.016 -277.402 102.867 C-284.472 104.724 -290.779 104.524 -297.25 101 C-303.725 96.593 -306.74 90.936 -308.812 83.5 C-311.373 58.351 -303.505 27.714 -289.812 6.5 C-282.971 5.889 -279.161 7.193 -273.812 11.5 C-271.088 14.156 -269.912 15.446 -269.555 19.242 C-269.855 23.035 -270.916 25.703 -272.438 29.188 C-284.001 56.618 -284.001 56.618 -282.797 85.445 C-282.472 86.123 -282.147 86.801 -281.812 87.5 C-280.637 87.603 -279.461 87.706 -278.25 87.812 C-277.589 87.871 -276.927 87.929 -276.246 87.988 C-269.74 86.683 -265.305 81.229 -261.625 76.062 C-260.934 75.104 -260.934 75.104 -260.229 74.126 C-247.704 56.221 -238.317 35.617 -230.199 15.383 C-228.721 12.31 -227.155 9.977 -224.812 7.5 C-219.038 6.501 -214.557 8.331 -209.812 11.5 C-207.429 13.49 -206.023 14.716 -205.211 17.742 C-205.137 26.046 -207.255 33.442 -209.523 41.353 C-215.262 61.343 -215.262 61.343 -212 81.25 C-210.02 84.636 -210.02 84.636 -206.812 86.5 C-198.959 86.204 -194.061 82.232 -188.797 76.805 C-184.935 72.319 -181.508 67.465 -178.203 62.557 C-177.176 61.038 -176.121 59.538 -175.051 58.048 C-170.284 51.121 -168.222 44.842 -166.688 36.625 C-166.205 34.256 -165.72 31.888 -165.234 29.52 C-165 28.347 -164.766 27.175 -164.525 25.967 C-163.447 20.72 -162.201 15.517 -160.938 10.312 C-160.722 9.416 -160.507 8.52 -160.285 7.596 C-159.796 5.564 -159.305 3.532 -158.812 1.5 C-151.511 1.355 -146.006 1.706 -140.312 6.688 C-136.824 13.228 -139.348 20.627 -141.188 27.375 C-144.896 40.745 -144.896 40.745 -145.812 54.5 C-145.532 53.967 -145.251 53.435 -144.961 52.886 C-138.929 41.514 -132.679 30.7 -124.812 20.5 C-124.283 19.786 -123.753 19.072 -123.207 18.336 C-118.3 12.096 -110.732 5.926 -102.812 4.5 C-96.855 3.815 -91.518 3.42 -86.375 6.875 C-81.082 11.649 -78.328 16.831 -77.336 23.895 C-76.969 33.266 -78.853 41.745 -81.015 50.826 C-82.466 57.161 -83.307 63.185 -83.312 69.688 C-83.321 70.791 -83.321 70.791 -83.33 71.917 C-83.257 75.022 -82.97 77.218 -81.449 79.949 C-79.845 81.731 -79.845 81.731 -77.125 82.125 C-67.893 80.383 -62.121 71.609 -56.812 64.5 C-55.509 61.892 -55.371 59.52 -55 56.625 C-52.244 38.449 -43.642 21.076 -29.062 9.5 C-27.658 8.483 -26.243 7.48 -24.812 6.5 C-23.575 5.634 -23.575 5.634 -22.312 4.75 C-14.987 1.087 -8.148 -0.054 0 0 Z " fill="#050505" transform="translate(694.8125,554.5)"/></g><g><path d="M0 0 C0.583 0.375 1.165 0.75 1.766 1.137 C2.096 6.287 2.328 10.73 0.391 15.574 C-8.248 24.007 -21.075 23.29 -32.336 23.27 C-33.49 23.27 -34.644 23.271 -35.833 23.272 C-38.269 23.273 -40.704 23.271 -43.14 23.267 C-46.827 23.262 -50.513 23.267 -54.199 23.273 C-64.309 23.276 -74.347 23.272 -84.424 22.391 C-94.463 21.722 -104.552 21.745 -114.609 21.574 C-117.003 21.531 -119.396 21.487 -121.789 21.443 C-127.604 21.337 -133.419 21.235 -139.234 21.137 C-139.419 21.896 -139.604 22.655 -139.794 23.437 C-141.363 29.81 -143.054 36.113 -144.984 42.387 C-147.685 51.268 -150.297 60.173 -152.874 69.091 C-153.153 70.052 -153.432 71.013 -153.719 72.004 C-154.086 73.274 -154.086 73.274 -154.46 74.57 C-155.328 77.446 -156.273 80.291 -157.234 83.137 C-155.771 83 -155.771 83 -154.279 82.861 C-135.908 81.165 -117.705 79.587 -99.234 80.137 C-99.18 82.095 -99.142 84.053 -99.109 86.012 C-99.086 87.102 -99.063 88.193 -99.039 89.316 C-99.234 92.137 -99.234 92.137 -101.234 94.137 C-103.395 94.484 -103.395 94.484 -106.108 94.623 C-107.123 94.68 -108.138 94.737 -109.184 94.795 C-110.286 94.847 -111.388 94.899 -112.523 94.953 C-113.656 95.015 -114.788 95.076 -115.955 95.139 C-119.589 95.335 -123.224 95.517 -126.859 95.699 C-130.473 95.887 -134.086 96.077 -137.7 96.27 C-139.95 96.389 -142.2 96.505 -144.451 96.617 C-150.091 96.909 -155.641 97.348 -161.234 98.137 C-163.516 103.974 -165.462 109.801 -167 115.879 C-169.149 124.136 -171.745 132.228 -174.443 140.32 C-175.243 142.725 -176.028 145.135 -176.812 147.545 C-177.327 149.098 -177.843 150.651 -178.359 152.203 C-178.589 152.913 -178.818 153.622 -179.054 154.353 C-180.958 159.987 -183.141 164.741 -188.234 168.137 C-190.135 168.364 -190.135 168.364 -192.246 168.332 C-193.003 168.326 -193.761 168.319 -194.541 168.312 C-195.72 168.287 -195.72 168.287 -196.922 168.262 C-197.719 168.253 -198.516 168.244 -199.338 168.234 C-201.304 168.211 -203.269 168.175 -205.234 168.137 C-204.682 162.714 -203.697 157.759 -201.984 152.574 C-201.763 151.884 -201.542 151.195 -201.314 150.484 C-199.836 145.894 -198.284 141.328 -196.734 136.762 C-194.598 130.427 -192.795 124.039 -191.05 117.587 C-189.425 111.646 -187.494 105.869 -185.234 100.137 C-186.447 100.353 -186.447 100.353 -187.684 100.574 C-188.752 100.76 -189.821 100.945 -190.922 101.137 C-191.978 101.322 -193.033 101.508 -194.121 101.699 C-196.883 102.087 -199.452 102.219 -202.234 102.137 C-204.28 97.791 -205.436 95.001 -205.234 90.137 C-202.736 89.627 -200.236 89.129 -197.734 88.637 C-197.038 88.494 -196.342 88.351 -195.625 88.203 C-190.744 87.254 -186.207 87.002 -181.234 87.137 C-181.087 86.335 -180.94 85.533 -180.789 84.707 C-179.249 76.901 -177.157 69.539 -174.568 62.028 C-172.801 56.893 -171.214 51.736 -169.734 46.512 C-167.365 38.204 -164.383 30.176 -161.234 22.137 C-191.031 26.009 -191.031 26.009 -216.094 41.102 C-217.421 43.051 -217.421 43.051 -217.145 45.215 C-216.022 47.585 -214.854 48.458 -212.672 49.887 C-212.031 50.315 -211.391 50.743 -210.73 51.184 C-209.99 51.655 -209.99 51.655 -209.234 52.137 C-212.109 57.012 -212.109 57.012 -213.234 58.137 C-220.026 58.897 -225.97 58.913 -231.609 54.754 C-235.436 50.946 -236.98 46.917 -237.734 41.637 C-236.69 34.324 -232.7 27.909 -226.93 23.293 C-207.146 10.545 -183.141 7.82 -160.086 7.865 C-158.651 7.861 -157.217 7.856 -155.782 7.85 C-152.729 7.838 -149.676 7.833 -146.623 7.832 C-141.778 7.83 -136.933 7.812 -132.088 7.791 C-120.061 7.742 -108.035 7.711 -96.008 7.69 C-86.64 7.673 -77.273 7.65 -67.906 7.607 C-63.107 7.585 -58.308 7.577 -53.508 7.579 C-50.505 7.577 -47.502 7.563 -44.499 7.546 C-42.479 7.538 -40.459 7.544 -38.44 7.551 C-26.785 7.461 -13.801 6.906 -4.031 -0.07 C-2.234 -0.863 -2.234 -0.863 0 0 Z " fill="#050505" transform="translate(441.234375,348.86328125)"/></g><g><path d="M0 0 C-0.231 1.42 -0.485 2.836 -0.75 4.25 C-0.889 5.039 -1.028 5.828 -1.172 6.641 C-2.238 9.678 -3.476 11.009 -6 13 C-8.84 14.012 -8.84 14.012 -11.938 14.688 C-12.957 14.918 -13.977 15.149 -15.027 15.387 C-17.683 15.935 -20.341 16.47 -23 17 C-23.029 17.885 -23.058 18.77 -23.088 19.682 C-23.793 39.207 -25.297 58.503 -27.875 77.875 C-27.998 78.822 -28.121 79.768 -28.247 80.744 C-29.738 92.116 -31.748 102.995 -35 114 C-35.462 115.699 -35.462 115.699 -35.933 117.433 C-40.21 133.162 -48.841 151.683 -63.453 160.098 C-76.965 167.285 -92.305 167.95 -107.035 164.035 C-117.702 160.311 -125.898 153.189 -131.5 143.438 C-135.051 135.782 -135.399 127.733 -133.402 119.551 C-130.967 113.785 -125.943 109.65 -121 106 C-115.69 104.23 -109.301 103.974 -103.914 105.648 C-102.312 106.562 -102.312 106.562 -100 109 C-98.466 114.932 -98.466 114.932 -100 118 C-101.052 117.918 -102.104 117.835 -103.188 117.75 C-107.611 118.04 -108.956 118.869 -112 122 C-115.244 127.147 -114.767 133.162 -114 139 C-111.312 145.77 -106.471 149.909 -100 153 C-93.719 155.094 -87.783 154.72 -81.75 152 C-70.115 145.482 -65.927 130.987 -62 119 C-53.319 87.08 -51.254 53.853 -49 21 C-49.572 21.131 -50.144 21.261 -50.734 21.396 C-52.459 21.789 -54.184 22.182 -55.908 22.574 C-57.904 23.029 -59.899 23.484 -61.894 23.939 C-66.595 25.01 -71.297 26.072 -76.012 27.082 C-83.595 28.711 -91.014 30.484 -98.402 32.875 C-101.241 33.763 -104.075 34.587 -106.941 35.375 C-116.644 38.049 -125.946 40.936 -135.164 44.996 C-138 46 -138 46 -141 45 C-142.168 42.418 -142.168 42.418 -143.188 39.188 C-143.532 38.129 -143.876 37.071 -144.23 35.98 C-145 33 -145 33 -145 29 C-116.867 18.495 -87.207 12.592 -57.682 7.483 C-55.114 7.021 -52.565 6.501 -50.012 5.965 C-44.419 4.83 -38.79 4.162 -33.125 3.5 C-26.742 2.735 -20.39 1.964 -14.062 0.812 C-9.304 -0.041 -4.83 -0.161 0 0 Z " fill="#050505" transform="translate(397,522)"/></g><g><path d="M0 0 C-1.891 17.774 -11.117 37.655 -25 49 C-30.62 52.434 -36.546 53.059 -43 52 C-46.646 50.112 -48.732 47.402 -51 44 C-51.895 39.611 -51.86 35.633 -49.75 31.625 C-47.966 29.247 -46.077 27.127 -44 25 C-43.022 23.981 -43.022 23.981 -42.023 22.941 C-31.894 13.21 -18.433 7.574 -5.859 1.688 C-5.163 1.361 -4.467 1.035 -3.749 0.699 C-2 0 -2 0 0 0 Z " fill="#FEFEFE" transform="translate(697,659)"/></g><g><path d="M0 0 C0.66 0 1.32 0 2 0 C1.67 5.94 1.34 11.88 1 18 C0.67 18 0.34 18 0 18 C-0.33 13.71 -0.66 9.42 -1 5 C-1.99 5.66 -2.98 6.32 -4 7 C-2.796 4.506 -1.546 2.319 0 0 Z " fill="#ABACAD" transform="translate(579,479)"/></g><g><path d="M0 0 C0.33 0 0.66 0 1 0 C1 3.96 1 7.92 1 12 C0.67 12 0.34 12 0 12 C-0.33 10.02 -0.66 8.04 -1 6 C-1.99 6 -2.98 6 -4 6 C-2.696 3.981 -1.362 1.981 0 0 Z " fill="#BFC0C0" transform="translate(396,471)"/></g><g><path d="M0 0 C1.274 2.547 0.802 3.428 0.062 6.125 C-0.132 6.849 -0.327 7.574 -0.527 8.32 C-0.683 8.875 -0.839 9.429 -1 10 C-1.99 9.34 -2.98 8.68 -4 8 C-2.25 2.25 -2.25 2.25 0 0 Z " fill="#CBCBCA" transform="translate(755,459)"/></g></svg>