<?xml version="1.0" encoding="iso-8859-1"?>
<!-- Uploaded to: SVG Repo, www.svgrepo.com, Generator: SVG Repo Mixer Tools -->
<svg fill="#000000" height="800px" width="800px" version="1.1" id="Layer_1" xmlns="http://www.w3.org/2000/svg" xmlns:xlink="http://www.w3.org/1999/xlink" 
	 viewBox="0 0 512 512" xml:space="preserve">
<g>
	<g>
		<path d="M504.907,32.053c0,0,0,0-0.001,0c-9.029-9.029-23.612-9.498-33.204-1.07L166.958,298.766l-0.48,0.449l-47.099,47.099
			c-6.698,6.699-10.388,15.604-10.388,25.078c0,1.975,0.169,3.923,0.484,5.833c-1.309-0.094-2.625-0.158-3.958-0.158
			c-28.029,0-50.603,22.046-54.894,53.613C46.679,459.69,8.83,466.724,8.477,466.787c-5.221,0.895-8.89,5.638-8.44,10.918
			c0.448,5.279,4.865,9.336,10.163,9.336h95.317c30.32,0,54.987-24.668,54.987-54.987c0-1.515-0.078-3.011-0.199-4.495
			c1.744,0.26,3.504,0.393,5.264,0.393c9.082,0,18.164-3.457,25.078-10.37l47.099-47.098l0.449-0.48L505.977,65.257
			C514.405,55.666,513.934,41.081,504.907,32.053z M105.516,466.642H53.474c8.449-7.873,15.379-18.629,17.362-33.214
			c2.434-17.9,14.1-35.962,34.681-35.962c19.071,0,34.588,15.516,34.588,34.588C140.104,451.126,124.589,466.642,105.516,466.642z
			 M176.222,403.156c-2.846,2.846-6.629,4.413-10.652,4.413s-7.807-1.568-10.652-4.412l-21.112-21.113
			c-2.846-2.846-4.413-6.629-4.413-10.652s1.568-7.808,4.413-10.652l9.028-9.029l42.418,42.418L176.222,403.156z M199.675,379.703
			l-42.418-42.418l16.433-16.434l42.418,42.419L199.675,379.703z M490.653,51.793L230.052,348.366l-41.457-41.457L485.166,46.307
			c1.537-1.349,3.871-1.274,5.315,0.171C491.927,47.923,492.001,50.258,490.653,51.793z"/>
	</g>
</g>
<g>
	<g>
		<path d="M289.88,242.396c-3.719-4.232-10.165-4.648-14.395-0.929l-39.787,34.961c-4.232,3.719-4.648,10.163-0.929,14.395
			c2.016,2.295,4.834,3.467,7.666,3.467c2.391,0,4.792-0.835,6.729-2.538l39.787-34.961
			C293.183,253.072,293.599,246.628,289.88,242.396z"/>
	</g>
</g>
<g>
	<g>
		<path d="M227.506,296.958c-3.719-4.232-10.165-4.649-14.396-0.929l-2.593,2.279c-4.231,3.719-4.647,10.163-0.928,14.395
			c2.016,2.295,4.834,3.467,7.666,3.467c2.391,0,4.792-0.835,6.73-2.538l2.593-2.279
			C230.809,307.634,231.225,301.19,227.506,296.958z"/>
	</g>
</g>
</svg>