<svg xmlns="http://www.w3.org/2000/svg" viewBox="0 8.550000190734863 171.64999389648438 56.29999923706055" data-asc="0.875" width="171.64999389648438" height="56.29999923706055"><defs/><g fill="#000000"><g transform="translate(0, 0)"><path d="M32.75 10.65L28.30 10.60L27.80 10.60Q22.50 10.60 17.38 12.10Q12.25 13.60 8.78 15.77Q5.30 17.95 3.18 20.25Q1.05 22.55 1.05 24.20Q1.05 26.45 4.48 26.45Q7.90 26.45 12.78 24.13Q17.65 21.80 20.95 18.25Q21.50 17.70 21.70 17.70Q21.80 17.70 21.80 17.85Q21.80 18 21.75 18.10Q20.35 21.40 14.98 24.88Q9.60 28.35 4.45 28.35Q2.25 28.35 1.13 27.45Q0 26.55 0 24.68Q0 22.80 2.08 20.07Q4.15 17.35 7.75 14.80Q11.35 12.25 17.13 10.50Q22.90 8.75 29.35 8.75Q50.55 8.75 51.25 8.65Q51.95 8.55 52.43 8.55Q52.90 8.55 52.90 8.75Q52.90 8.95 52.38 9.38Q51.85 9.80 50.58 10.23Q49.30 10.65 47.70 10.65Q40.20 10.65 32.75 10.65M30.95 12.85Q30.95 12.95 30.85 13.15L20.90 32.45Q25 32.35 26.80 32.35L28.70 32.35Q31.95 32.40 31.95 32.73Q31.95 33.05 31.23 33.58Q30.50 34.10 29.85 34.10Q28.45 34 23.20 34L20.10 34L15.20 43.55Q14.90 44.20 14.10 44.55Q13.30 44.90 12.88 44.90Q12.45 44.90 12.45 44.65Q12.45 44.40 17.90 34.05Q11.70 34.25 8.40 34.65Q8 34.65 8 34.45Q8 34.20 8.95 33.35Q9.75 32.85 18.70 32.55Q28.55 13.90 28.45 13.80Q28.75 13.30 29.45 13.05L30.70 12.65L30.95 12.85ZM36.35 37.80Q36.05 37.80 36.05 37.45L36.20 37.10Q37.10 36.25 37.10 35.65Q37.10 34.90 36.30 34.90Q34.55 34.90 31.57 37.33Q28.60 39.75 28.60 41.65Q28.60 42.45 29.65 42.45Q30.70 42.45 32.08 41.58Q33.45 40.70 34.42 39.83Q35.40 38.95 35.50 38.95Q36 39 36 39.45Q36 39.65 35.23 40.75Q34.45 41.85 34.45 42.50Q34.45 43 35.27 43Q36.10 43 38.20 42.02Q40.30 41.05 41.90 40.05L43.50 39.05Q43.55 39.15 43.55 39.45Q43.55 39.75 43.10 39.95Q36.35 44.55 33.70 44.55Q32.40 44.55 32.40 43.25Q32.40 42.70 32.60 42.10Q32.25 42.50 30.52 43.33Q28.80 44.15 27.45 44.15Q26.10 44.15 26.10 42.90Q26.10 39.95 30.20 36.88Q34.30 33.80 37.10 33.80Q38.75 33.80 38.75 35.20Q38.75 36 37.75 36.90Q36.75 37.80 36.35 37.80ZM42.05 39.95Q43 39.40 44.55 38.20Q48.35 35.20 48.60 35.20Q49.35 35.20 49.35 35.85Q49.35 36.50 48.57 37.85Q47.80 39.20 46.82 40.65Q45.85 42.10 45.70 42.40Q45.75 42.45 45.92 42.45Q46.10 42.45 47.90 41.13Q49.70 39.80 51.65 38.33Q53.60 36.85 53.95 36.63Q54.30 36.40 54.60 36.40Q55.20 36.45 55.20 37.10Q55.20 37.35 53.50 39.63Q51.80 41.90 51.80 42.55Q51.80 43 52.88 43Q53.95 43 56.05 42.02Q58.15 41.05 59.75 40.05L61.35 39.05Q61.40 39.15 61.40 39.45Q61.40 39.75 60.95 39.95Q54.20 44.55 51.55 44.55Q50 44.55 50 43.35Q50 42.20 50.67 41.15Q51.35 40.10 51.85 39.38Q52.35 38.65 52.35 38.60Q50.05 40.25 46.90 42.55Q43.75 44.85 43.35 44.85Q43.05 44.85 43.05 44.15Q43.05 43.45 45.02 40.50Q47 37.55 47 37.35Q47 37.15 46.90 37.15L46.40 37.40L43.90 39.40Q43.65 39.60 42.95 40.05Q42.25 40.50 42.07 40.50Q41.90 40.50 41.90 40.27Q41.90 40.05 42.05 39.95ZM59.90 39.95Q60.85 39.40 62.40 38.20Q66.20 35.20 66.45 35.20Q67.20 35.20 67.20 35.85Q67.20 36.50 66.42 37.85Q65.65 39.20 64.67 40.65Q63.70 42.10 63.55 42.40Q63.60 42.45 63.77 42.45Q63.95 42.45 65.75 41.13Q67.55 39.80 69.50 38.33Q71.45 36.85 71.80 36.63Q72.15 36.40 72.45 36.40Q73.05 36.45 73.05 37.10Q73.05 37.35 71.35 39.63Q69.65 41.90 69.65 42.55Q69.65 43 70.72 43Q71.80 43 73.90 42.02Q76 41.05 77.60 40.05L79.20 39.05Q79.25 39.15 79.25 39.45Q79.25 39.75 78.80 39.95Q72.05 44.55 69.40 44.55Q67.85 44.55 67.85 43.35Q67.85 42.20 68.53 41.15Q69.20 40.10 69.70 39.38Q70.20 38.65 70.20 38.60Q67.90 40.25 64.75 42.55Q61.60 44.85 61.20 44.85Q60.90 44.85 60.90 44.15Q60.90 43.45 62.88 40.50Q64.85 37.55 64.85 37.35Q64.85 37.15 64.75 37.15L64.25 37.40L61.75 39.40Q61.50 39.60 60.80 40.05Q60.10 40.50 59.92 40.50Q59.75 40.50 59.75 40.27Q59.75 40.05 59.90 39.95ZM90.50 34.40Q90.50 34.45 89.38 36.17Q88.25 37.90 87.63 38.80Q87 39.70 82.40 47.20Q82.80 47.15 83.70 47.15Q86.10 47.15 86.10 48.40Q86.10 49.10 85.20 50.05Q84.30 51 83.80 51Q83.30 51 83.30 50.65Q83.30 50.45 83.85 50.02Q84.40 49.60 84.40 49.02Q84.40 48.45 83.42 48.45Q82.45 48.45 81.55 48.60Q77 56.05 73.70 60.25Q70.40 64.45 68.05 64.45Q66.35 64.45 66.35 62.70Q66.35 59.70 70.88 54.38Q75.40 49.05 80.70 47.55L85.50 39.25Q83.40 41.15 81.17 42.60Q78.95 44.05 77.80 44.05Q76.65 44.05 76.65 43Q76.65 41.40 81.90 34.15Q82.15 33.75 82.55 33.75Q83.70 34.10 83.70 34.25Q83.70 34.40 83.40 34.85Q78.90 40.95 78.90 41.90Q78.90 42.50 79.58 42.50Q80.25 42.50 82.38 40.90Q84.50 39.30 86 37.65L88.80 34.25Q89.10 33.90 89.55 33.90Q90.50 34.05 90.50 34.40M71.20 55.42Q71.20 55.42 70.47 56.41Q69.75 57.40 68.90 59.17Q68.05 60.95 68.05 61.98Q68.05 63 68.85 63Q71.35 63 79.80 49Q77.30 49.80 74.97 51.63Q72.65 53.45 71.20 55.42ZM120.90 39.95Q118.25 39.95 115.45 40.75Q108.95 50.90 103.17 57.88Q97.40 64.85 94.80 64.85Q93.05 64.85 93.05 62.92Q93.05 61 94.75 57.80Q96.45 54.60 99.23 51.23Q102 47.85 106.03 44.73Q110.05 41.60 114.20 40.05Q119.35 31.25 123.05 23.45Q126.75 15.65 126.75 13.40Q126.75 10.45 124.48 10.45Q122.20 10.45 118.30 13.20Q114.40 15.95 110.75 19.75Q107.10 23.55 104.42 27.90Q101.75 32.25 101.75 34.90Q101.75 37.55 104.30 37.55Q107 37.55 110.38 34.35Q113.75 31.15 114.30 28.90Q114.40 28.55 114.78 28.55Q115.15 28.55 115.15 28.90Q115.15 31.55 110.50 35.33Q105.85 39.10 102.60 39.10Q100 39.10 100 35.92Q100 32.75 102.98 27.95Q105.95 23.15 110.03 19Q114.10 14.85 118.58 11.90Q123.05 8.95 125.85 8.95Q129.20 8.95 129.20 13.30Q129.20 15.90 125.50 23.30Q121.80 30.70 116.35 39.35Q119.20 38.60 120.83 38.60Q122.45 38.60 123.33 39.08Q124.20 39.55 124.20 40.30Q124.20 41.90 123.18 43.25Q122.15 44.60 120.80 44.60Q120.60 44.60 120.60 44.45Q120.60 43.95 121.30 43.60Q122.25 42.75 122.25 41.35Q122.25 39.95 120.90 39.95M95.10 61.45Q95.10 62.60 96 62.60Q98.40 62.60 103.08 56.65Q107.75 50.70 113.30 41.55Q108.45 43.50 104.05 47.67Q99.65 51.85 97.38 55.65Q95.10 59.45 95.10 61.45ZM131.45 43.25Q131.45 42.70 132.28 41.40Q133.10 40.10 133.38 39.75Q133.65 39.40 134.20 38.65Q128.25 44.05 126 44.05Q124.75 44.05 124.75 43Q124.75 41.50 129.80 34.55Q130.05 34.15 130.45 34.15Q131.60 34.50 131.60 34.65Q131.60 34.80 131.30 35.25Q127 41.05 127 41.77Q127 42.50 127.50 42.50Q128.90 42.50 132.47 39.27Q136.05 36.05 137.65 33.95Q137.85 33.60 138.30 33.60Q139.30 33.80 139.30 34Q138.75 34.80 137.80 36.10Q136.85 37.40 136.25 38.23Q135.65 39.05 135 40Q133.75 41.70 133.50 42.50Q133.50 43 134.32 43Q135.15 43 137.25 42.02Q139.35 41.05 140.95 40.05L142.55 39.05Q142.60 39.15 142.60 39.45Q142.60 39.75 142.15 39.95Q135.40 44.55 132.75 44.55Q131.45 44.55 131.45 43.25ZM141.10 39.95Q142.05 39.40 143.60 38.20Q147.40 35.20 147.65 35.20Q148.40 35.20 148.40 35.85Q148.40 36.50 147.63 37.85Q146.85 39.20 145.88 40.65Q144.90 42.10 144.75 42.40Q144.80 42.45 144.97 42.45Q145.15 42.45 146.95 41.13Q148.75 39.80 150.70 38.33Q152.65 36.85 153 36.63Q153.35 36.40 153.65 36.40Q154.25 36.45 154.25 37.10Q154.25 37.35 152.55 39.63Q150.85 41.90 150.85 42.55Q150.85 43 151.92 43Q153 43 155.10 42.02Q157.20 41.05 158.80 40.05L160.40 39.05Q160.45 39.15 160.45 39.45Q160.45 39.75 160 39.95Q153.25 44.55 150.60 44.55Q149.05 44.55 149.05 43.35Q149.05 42.20 149.72 41.15Q150.40 40.10 150.90 39.38Q151.40 38.65 151.40 38.60Q149.10 40.25 145.95 42.55Q142.80 44.85 142.40 44.85Q142.10 44.85 142.10 44.15Q142.10 43.45 144.07 40.50Q146.05 37.55 146.05 37.35Q146.05 37.15 145.95 37.15L145.45 37.40L142.95 39.40Q142.70 39.60 142 40.05Q141.30 40.50 141.13 40.50Q140.95 40.50 140.95 40.27Q140.95 40.05 141.10 39.95ZM171.65 33.75Q171.65 34.75 170.35 35.90Q169.05 37.05 168.47 37.05Q167.90 37.05 167.90 36.75L168.25 36.30Q169.50 35.15 169.50 34.60Q169.50 33.90 168.75 33.90Q166.95 33.95 163.75 37.10Q160.55 40.25 160.55 41.75Q160.55 42.40 161.27 42.40Q162 42.40 163.30 41.73Q164.60 41.05 165.55 40.35L166.55 39.65Q166.70 39.55 167.10 39.05Q168.20 37.70 168.55 37.70Q169.35 37.80 169.35 38.40Q168.05 40.30 164.50 46.25Q165.55 46.10 166.55 46.10Q168.95 46.10 168.95 47.35Q168.95 48.05 168.02 49.13Q167.10 50.20 166.60 50.20Q166.10 50.20 166.10 49.85Q166.10 49.65 166.65 49.23Q167.20 48.80 167.20 48.20Q167.20 47.40 166.15 47.40Q165.10 47.40 163.70 47.65Q161.50 51.45 160.22 53.58Q158.95 55.70 157.05 58.35Q153.45 63.40 150.70 63.40Q149 63.40 149 61.65Q149 58.55 153.22 53.55Q157.45 48.55 162.60 46.80L165.40 41.50Q164.80 41.90 163.35 42.60Q160.55 43.95 159.45 43.95Q158.10 43.95 158.10 42.55Q158.10 41.15 160.25 38.75Q162.40 36.35 165.35 34.48Q168.30 32.60 170.25 32.60Q170.85 32.60 171.20 32.88Q171.55 33.15 171.65 33.75M150.70 60.90Q150.70 61.95 151.50 61.95Q154.05 61.95 161.80 48.20Q157.25 49.90 153.97 54.15Q150.70 58.40 150.70 60.90Z"/></g></g></svg>